<?xml version="1.0" encoding="utf-8"?>
<!-- Generator: Adobe Illustrator 15.1.0, SVG Export Plug-In . SVG Version: 6.00 Build 0)  -->
<!DOCTYPE svg PUBLIC "-//W3C//DTD SVG 1.1//EN" "http://www.w3.org/Graphics/SVG/1.1/DTD/svg11.dtd">
<svg version="1.1" id="spritesSSOOptimized.org-Page_x25_201"
	 xmlns="http://www.w3.org/2000/svg" xmlns:xlink="http://www.w3.org/1999/xlink" x="0px" y="0px" width="320px" height="332.5px"
	 viewBox="0 0 320 332.5" enable-background="new 0 0 320 332.5" xml:space="preserve">
<g id="Background">
	<path fill="#999999" d="M88,194l10,9l10-9h-3.335L98,200l-6.665-6H88z"/>
	<path id="Ellipse" fill="#FFFFFF" d="M2,138c0-8.837,7.163-16,16-16s16,7.163,16,16s-7.163,16-16,16S2,146.837,2,138z"/>
	<path fill="#D7534C" d="M33.233,147.605c-5.182,8.233-15.982,10.812-24.315,5.937c-8.391-4.91-11.44-15.715-6.634-24.318
		c4.949-8.856,16.225-11.91,24.999-6.62C35.988,127.854,38.563,139.133,33.233,147.605z M6.732,139.96l5.258,2.556l2.19,8.273
		l3.178-5.297l-3.556-2.1l8.546-14.445l1.717,1.033l-8.498,14.273l8.452,4.109l2.15-23.884L6.732,139.96z"/>
	<path fill="#BBBBBB" d="M99,81v3h-3v-3H99z M99,79h-3v-9h3V79z M89,67c-2,0-4,1.969-4,4v12c0,1.906,1.969,4,4,4h17c1.969,0,4-2,4-4
		v-7l5-5h-5c0-2-2.031-4-4-4H89z"/>
	<g>
		<path fill="#999999" d="M90.254,19.608c0,0.463,0.052,0.916,0.149,1.35c0.128-0.196,0.278-0.382,0.451-0.554
			c1.338-1.328,4.599-1.846,5.652-0.8c1.003,0.996,0.531,4.281-0.807,5.608c-0.173,0.172-0.361,0.321-0.559,0.448
			c0.438,0.097,0.894,0.148,1.361,0.148c2.731,0,5.055-1.739,5.903-4.164l7.26-15.311L94.45,13.75
			C92.007,14.593,90.254,16.897,90.254,19.608z"/>
		<path fill="#999999" d="M86.333,18c0-6.517,5.099-11.667,11.667-11.667c1.647,0,3.573,0.232,5,0.833l3.333-1.667
			C103.923,3.889,101.124,3,98,3c-8.35,0-15,6.716-15,15s6.65,15,15,15c8.349,0,15-6.716,15-15c0-3.1-0.876-5.942-2.5-8.333
			L108.833,13c0.605,1.415,0.833,3.365,0.833,5c0,6.517-5.099,11.667-11.666,11.667C91.432,29.667,86.333,24.517,86.333,18z"/>
	</g>
	<path fill="#00CCEE" d="M0,63c0-2.875,3-3,3-3h30c3,0,3,3,3,3v30c0,3.125-3,3-3,3H3c-3.125,0-3-3-3-3V63z"/>
	<path fill="#1F8EC4" d="M0,245c0-5,5-5,5-5h26c5,0,5,5,5,5v26c0,5.062-5,5-5,5H5c-5.062,0-5-5-5-5V245z"/>
	<path fill="#444444" d="M1,245c0-3.938,4-4,4-4h26c4,0,4,4,4,4v26c0,3.125-4,4-4,4H5c-4,0-4-4-4-4V245z"/>
	<path id="Ellipse2" fill="#FFFFFF" d="M4,78c0-7.732,6.268-14,14-14c7.731,0,14,6.268,14,14s-6.269,14-14,14
		C10.268,92,4,85.732,4,78z"/>
	<g>
		<path fill="#00BBDD" d="M17.835,87.911v0.026c2.38,0.029,4.16-0.392,5.33-1.254c1.109-0.915,1.679-2.319,1.679-4.292v-0.486
			c0.029-1.518-0.27-2.702-0.93-3.553c-0.719-0.88-1.979-1.518-3.699-1.882l-2.048-0.456c-0.885-0.152-1.521-0.425-1.881-0.82
			c-0.305-0.334-0.473-0.85-0.442-1.579v-0.243c0.027-0.972,0.221-1.609,0.636-1.883c0.36-0.334,1.135-0.484,2.269-0.484
			c1.135,0.029,2.352,0.242,3.757,0.697c0.57,0.182,0.87,0.061,0.96-0.365l0.479-1.784c0.15-0.457,0-0.726-0.51-0.806
			c-0.569-0.162-1.289-0.296-2.158-0.43c-0.812-0.134-1.671-0.188-2.556-0.188c-2.075-0.029-3.674,0.295-4.795,1.021
			c-1.18,0.779-1.77,2.065-1.77,4.039v0.395c0.029,1.67,0.413,2.915,1.15,3.765c0.678,0.82,1.917,1.397,3.644,1.761l1.937,0.486
			c0.968,0.213,1.604,0.516,1.937,0.941c0.221,0.273,0.333,0.82,0.333,1.64v0.243c0.029,0.941-0.14,1.579-0.555,1.974
			c-0.553,0.486-1.466,0.694-2.738,0.668c-0.637,0-1.384-0.091-2.197-0.304c-0.855-0.212-1.622-0.425-2.271-0.668
			c-0.442-0.212-0.708-0.03-0.855,0.486l-0.324,1.636c-0.146,0.471,0.06,0.758,0.619,0.863c0.737,0.209,1.593,0.392,2.537,0.549
			c0.942,0.224,1.772,0.313,2.547,0.313L17.835,87.911L17.835,87.911z"/>
	</g>
	<g>
		<path fill="#FF8800" d="M10.254,19.608c0,0.463,0.053,0.916,0.149,1.35c0.128-0.196,0.278-0.382,0.451-0.554
			c1.338-1.328,4.599-1.846,5.652-0.8c1.004,0.996,0.531,4.281-0.807,5.608c-0.173,0.172-0.361,0.321-0.559,0.448
			c0.438,0.097,0.894,0.148,1.361,0.148c2.731,0,5.055-1.739,5.903-4.164l7.26-15.311L14.45,13.75
			C12.007,14.593,10.254,16.897,10.254,19.608z"/>
		<path fill="#231946" d="M6.333,18c0-6.517,5.099-11.667,11.667-11.667c1.647,0,3.573,0.232,5,0.833L26.333,5.5
			C23.923,3.889,21.124,3,18,3C9.651,3,3,9.716,3,18s6.65,15,15,15c8.349,0,15-6.716,15-15c0-3.1-0.876-5.942-2.5-8.333L28.833,13
			c0.605,1.415,0.833,3.365,0.833,5c0,6.517-5.099,11.667-11.666,11.667C11.432,29.667,6.333,24.517,6.333,18z"/>
	</g>
	<g>
		<path fill="#FF8800" d="M170.254,19.608c0,0.463,0.052,0.916,0.149,1.35c0.128-0.196,0.278-0.382,0.451-0.554
			c1.338-1.328,4.599-1.846,5.652-0.8c1.003,0.996,0.531,4.281-0.807,5.608c-0.173,0.172-0.361,0.321-0.559,0.448
			c0.438,0.097,0.894,0.148,1.361,0.148c2.731,0,5.055-1.739,5.903-4.164l7.26-15.311L174.45,13.75
			C172.007,14.593,170.254,16.897,170.254,19.608z"/>
		<path fill="#FFFFFF" d="M166.333,18c0-6.517,5.099-11.667,11.667-11.667c1.647,0,3.573,0.232,5,0.833l3.333-1.667
			C183.923,3.889,181.124,3,178,3c-8.35,0-15,6.716-15,15s6.65,15,15,15c8.349,0,15-6.716,15-15c0-3.1-0.876-5.942-2.5-8.333
			L188.833,13c0.605,1.415,0.833,3.365,0.833,5c0,6.517-5.099,11.667-11.666,11.667C171.432,29.667,166.333,24.517,166.333,18z"/>
	</g>
	<path fill="#BBBBBB" d="M93,138c0-2.762,2.238-5,5-5c2.761,0,5,2.238,5,5s-2.239,5-5,5C95.239,143,93,140.762,93,138z M89,138
		c0,0.684,0.075,1.35,0.22,1.99l-3.354,2.948l2,3.464l4.483-1.397c0.813,0.658,1.744,1.177,2.755,1.52L96,151h4l1.015-4.52
		c1.014-0.361,1.945-0.897,2.755-1.575l4.427,1.497l2-3.464l-3.382-3.118c0.121-0.588,0.186-1.196,0.186-1.82
		c0-0.664-0.074-1.312-0.21-1.935l3.406-3.137l-2-3.464L103.655,131c-0.782-0.632-1.673-1.136-2.64-1.48L100,125h-4l-0.896,4.475
		c-1.002,0.34-1.926,0.851-2.734,1.5l-4.504-1.403l-2,3.464l3.358,2.954C89.077,136.637,89,137.309,89,138z"/>
	<path fill="#231946" d="M259,81v3h-3v-3H259z M259,79h-3v-9h3V79z M249,67c-2,0-4,1.969-4,4v12c0,1.906,1.969,4,4,4h17
		c1.969,0,4-2,4-4v-7l5-5h-5c0-2-2.031-4-4-4H249z"/>
	<path fill="#231946" d="M253,138c0-2.762,2.238-5,5-5c2.761,0,5,2.238,5,5s-2.239,5-5,5C255.239,143,253,140.762,253,138z M249,138
		c0,0.684,0.075,1.35,0.22,1.99l-3.354,2.948l2,3.464l4.483-1.397c0.813,0.658,1.744,1.177,2.755,1.52L256,151h4l1.015-4.52
		c1.014-0.361,1.945-0.897,2.755-1.575l4.427,1.497l2-3.464l-3.382-3.118c0.121-0.588,0.186-1.196,0.186-1.82
		c0-0.664-0.074-1.312-0.21-1.935l3.406-3.137l-2-3.464L263.655,131c-0.782-0.632-1.673-1.136-2.64-1.48L260,125h-4l-0.896,4.475
		c-1.002,0.34-1.926,0.851-2.734,1.5l-4.504-1.403l-2,3.464l3.358,2.954C249.077,136.637,249,137.309,249,138z"/>
	<path fill="#FF8800" d="M179,81v3h-3v-3H179z M179,79h-3v-9h3V79z M169,67c-2,0-4,1.969-4,4v12c0,1.906,1.969,4,4,4h17
		c1.969,0,4-2,4-4v-7l5-5h-5c0-2-2.031-4-4-4H169z"/>
	<path fill="#FF8800" d="M173,138c0-2.762,2.238-5,5-5c2.761,0,5,2.238,5,5s-2.239,5-5,5C175.239,143,173,140.762,173,138z M169,138
		c0,0.684,0.075,1.35,0.22,1.99l-3.354,2.948l2,3.464l4.483-1.397c0.813,0.658,1.744,1.177,2.755,1.52L176,151h4l1.015-4.52
		c1.014-0.361,1.945-0.897,2.755-1.575l4.427,1.497l2-3.464l-3.382-3.118c0.121-0.588,0.186-1.196,0.186-1.82
		c0-0.664-0.074-1.312-0.21-1.935l3.406-3.137l-2-3.464L183.655,131c-0.782-0.632-1.673-1.136-2.64-1.48L180,125h-4l-0.896,4.475
		c-1.002,0.34-1.926,0.851-2.734,1.5l-4.504-1.403l-2,3.464l3.358,2.954C169.077,136.637,169,137.309,169,138z"/>
	<path fill="#333399" d="M18,180c9.94,0,18,8.059,18,18s-8.06,18-18,18c-9.941,0-18-8.059-18-18S8.059,180,18,180L18,180z"/>
	<path fill="#F5F5F5" d="M35.781,196.969c-1.664-1.248-3.272-2.783-4.737-4.57c0.946-1.021,1.818-2.074,2.608-3.154
		c-0.24-0.446-0.5-0.881-0.777-1.304c-0.8,1.136-1.702,2.255-2.7,3.345c-2.352-3.17-3.864-6.562-4.475-9.686
		c-0.495-0.242-1.003-0.461-1.522-0.658c0.056,0.387,0.123,0.777,0.205,1.17c0.252,1.208,0.628,2.445,1.117,3.68
		c0.494,1.246,1.106,2.492,1.819,3.703c0.565,0.961,1.196,1.903,1.883,2.813c-0.611,0.618-1.253,1.226-1.926,1.818
		c-0.894-2.062-2.026-3.995-3.38-5.758c-1.576-2.054-3.428-3.851-5.501-5.339c-1.536-1.103-3.17-2.02-4.877-2.738
		c-0.737,0.18-1.458,0.405-2.156,0.674c6.36,2.127,11.918,7.143,14.804,14.105c-1.136,0.932-2.348,1.824-3.63,2.666
		c-0.144-0.415-0.303-0.826-0.479-1.23c-0.429-0.98-0.956-1.93-1.568-2.824c-0.604-0.88-1.294-1.712-2.052-2.472
		c-0.756-0.758-1.582-1.449-2.458-2.054c-0.884-0.611-1.823-1.138-2.791-1.564c-0.99-0.438-2.017-0.773-3.053-0.999
		c-1.069-0.233-2.158-0.352-3.235-0.352c-1.075,0-2.149,0.118-3.201,0.35c-0.456,0.573-0.877,1.177-1.262,1.804
		c8.055-2.809,16.456,2.523,18.889,10.111c-0.479,0.293-0.968,0.58-1.465,0.858c-6.334,3.554-12.964,5.27-18.729,5.215
		c0.194,0.474,0.406,0.938,0.638,1.392c1.378-0.018,2.803-0.129,4.24-0.334c1.577-0.226,3.189-0.565,4.793-1.011
		c3.315-0.92,6.593-2.282,9.739-4.048c0.391-0.219,0.776-0.443,1.159-0.673c1.072,4.983-0.423,10.732-6.108,15.737
		c0.625,0.076,1.261,0.12,1.904,0.131c1.666-1.625,2.999-3.373,3.976-5.221c0.653-1.235,1.148-2.521,1.474-3.824
		c0.312-1.25,0.47-2.531,0.47-3.807c0-1.106-0.119-2.221-0.354-3.312c-0.034-0.161-0.072-0.321-0.112-0.48
		c1.305-0.841,2.555-1.739,3.741-2.69c2.039,5.805,1.887,11.824-0.03,17.01c0.647-0.367,1.271-0.773,1.866-1.215
		c0.004-0.014,0.008-0.026,0.012-0.039c0.673-2.328,1.014-4.756,1.014-7.216c0-1.596-0.146-3.208-0.432-4.79
		c-0.288-1.588-0.724-3.168-1.293-4.697c0.057-0.048,0.113-0.096,0.169-0.145c0.724-0.63,1.416-1.277,2.077-1.941
		c1.054,1.271,2.196,2.446,3.405,3.492c0.747,0.646,1.517,1.241,2.3,1.782c0.015-0.3,0.022-0.601,0.022-0.903
		C35.799,197.506,35.792,197.236,35.781,196.969z"/>
	<path fill="#1AB0FA" d="M32,250c0-3.314-6.269-6-14-6c-7.732,0-14,2.686-14,6v12c0,3.314,6.268,6,14,6c7.731,0,14-2.686,14-6V250z"
		/>
	<path id="Ellipse3" fill="#FFFFFF" d="M5,271.5c0-0.828,0.671-1.5,1.5-1.5c0.828,0,1.5,0.672,1.5,1.5S7.328,273,6.5,273
		C5.671,273,5,272.328,5,271.5z"/>
	<path id="Ellipse4" fill="#FFFFFF" d="M28,271.5c0-0.828,0.671-1.5,1.5-1.5c0.828,0,1.5,0.672,1.5,1.5s-0.672,1.5-1.5,1.5
		C28.671,273,28,272.328,28,271.5z"/>
	<rect x="11" y="270" fill="#2C2C2C" width="14" height="3"/>
	<path id="Ellipse5" fill="#FFFFFF" d="M6,257.5c0-3.037,2.462-5.5,5.5-5.5c3.037,0,5.5,2.463,5.5,5.5s-2.463,5.5-5.5,5.5
		C8.462,263,6,260.537,6,257.5z"/>
	<path id="Ellipse6" fill="#1AB0FA" d="M8,257.5c0-1.934,1.566-3.5,3.5-3.5c1.933,0,3.5,1.566,3.5,3.5s-1.567,3.5-3.5,3.5
		C9.567,261,8,259.434,8,257.5z"/>
	<path id="Ellipse7" fill="#FFFFFF" d="M19,257.5c0-3.037,2.462-5.5,5.5-5.5c3.037,0,5.5,2.463,5.5,5.5s-2.463,5.5-5.5,5.5
		C21.462,263,19,260.537,19,257.5z"/>
	<path id="Ellipse8" fill="#1AB0FA" d="M21,257.5c0-1.934,1.566-3.5,3.5-3.5c1.933,0,3.5,1.566,3.5,3.5s-1.567,3.5-3.5,3.5
		C22.567,261,21,259.434,21,257.5z"/>
	<path id="Ellipse9" fill="#FFFFFF" d="M11,256.5c0-0.828,0.671-1.5,1.5-1.5c0.828,0,1.5,0.672,1.5,1.5s-0.672,1.5-1.5,1.5
		C11.671,258,11,257.328,11,256.5z"/>
	<path id="Ellipse10" fill="#FFFFFF" d="M24,256.5c0-0.828,0.671-1.5,1.5-1.5c0.828,0,1.5,0.672,1.5,1.5s-0.672,1.5-1.5,1.5
		C24.671,258,24,257.328,24,256.5z"/>
	<path fill="#FFFFFF" d="M11,247l6,4l-8-2L11,247z"/>
	<path fill="#FFFFFF" d="M25,247l-6,4l8-2L25,247z"/>
</g>
<g id="Layer_x25_201">
</g>
<g id="Layer_x25_201_1_">
	<path fill="#C5920D" d="M11.439,298.106l0.013,0.016c-1.082-0.709-3.342-1.756-4.742-1.756c-3.766,0-6.286,3.213-6.286,6.92v15.652
		c0,5.975,6.171,10.574,13.262,10.574c7.092,0,12.843-4.578,12.843-10.574c0-6.541-5.327-12.26-12.418-12.26
		c0,0-0.615,0.189-0.399-0.596l4.586-3.143l-3.933-0.945l2.969-4.734L11.439,298.106z M5.34,318.306
		c0-3.834,3.737-6.945,8.347-6.945c4.611,0,8.347,3.111,8.347,6.945c0,3.836-3.735,6.945-8.347,6.945
		C9.077,325.251,5.34,322.142,5.34,318.306z"/>
	<path fill="#FF3200" d="M10.591,297.261L13,301.677l4.334-4.416H10.591z"/>
	<path fill="#FF3200" d="M11.553,300.415v5.051l6.745-2.525L11.553,300.415z"/>
	<path fill="#FFBA00" d="M0,318.095c0,5.975,5.747,10.572,12.837,10.572c7.092,0,12.844-4.576,12.844-10.572
		c0-6.541-5.752-11.84-12.844-11.84c0,0,0.802-2.25,0.802-3.391c0-3.707-3.053-6.709-6.819-6.709c-3.766,0-6.82,3.002-6.82,6.709
		V318.095z M4.492,317.462c0-3.834,3.736-6.947,8.346-6.947c4.61,0,8.347,3.113,8.347,6.947s-3.736,6.945-8.347,6.945
		C8.228,324.407,4.492,321.296,4.492,317.462z"/>
	<path fill="#101010" d="M4.814,301.206c0-1.746,1.438-3.156,3.211-3.156c1.772,0,3.21,1.41,3.21,3.156
		c0,1.742-1.438,3.156-3.21,3.156C6.252,304.362,4.814,302.948,4.814,301.206z"/>
	<path fill="#FFFFFF" d="M6.099,300.259c0-0.523,0.428-0.945,0.963-0.945c0.53,0,0.962,0.422,0.962,0.945s-0.432,0.947-0.962,0.947
		C6.528,301.206,6.099,300.782,6.099,300.259z"/>
</g>
</svg>
